<mxfile host="app.diagrams.net" modified="2023-06-10T12:40:03.212Z" agent="Mozilla/5.0 (Linux; arm_64; Android 11; RMX2063) AppleWebKit/537.36 (KHTML, like Gecko) Chrome/112.0.0.0 YaApp_Android/23.50.1 YaSearchBrowser/23.50.1 BroPP/1.0 SA/3 Mobile Safari/537.36" etag="IdpK5WJNP4LjfQBkq1oH" version="21.3.8" type="github" pages="2">
  <diagram name="Page-1" id="2a216829-ef6e-dabb-86c1-c78162f3ba2b">
    <mxGraphModel dx="724" dy="1184" grid="1" gridSize="10" guides="1" tooltips="1" connect="1" arrows="1" fold="1" page="1" pageScale="1" pageWidth="850" pageHeight="1100" background="none" math="0" shadow="0">
      <root>
        <mxCell id="0" />
        <mxCell id="1" parent="0" />
        <mxCell id="7a84cebc1def654-2" value="Task" style="shape=ext;rounded=1;html=1;whiteSpace=wrap;arcSize=50;direction=west;" parent="1" vertex="1">
          <mxGeometry x="360" y="250" width="120" height="70" as="geometry" />
        </mxCell>
      </root>
    </mxGraphModel>
  </diagram>
  <diagram id="A0qNlgaubQNxFhgFj3bR" name="Страница 2">
    <mxGraphModel dx="326" dy="533" grid="0" gridSize="10" guides="1" tooltips="1" connect="1" arrows="1" fold="1" page="0" pageScale="1" pageWidth="827" pageHeight="1169" math="0" shadow="0">
      <root>
        <mxCell id="0" />
        <mxCell id="1" parent="0" />
      </root>
    </mxGraphModel>
  </diagram>
</mxfile>
